<?xml version="1.0" standalone="no"?>
<!DOCTYPE svg PUBLIC "-//W3C//DTD SVG 20010904//EN"
 "http://www.w3.org/TR/2001/REC-SVG-20010904/DTD/svg10.dtd">
<svg version="1.0" xmlns="http://www.w3.org/2000/svg"
 width="70.000000pt" height="70.000000pt" viewBox="0 0 70.000000 70.000000"
 preserveAspectRatio="xMidYMid meet">
<metadata>
Created by potrace 1.14, written by Peter Selinger 2001-2017
</metadata>
<g transform="translate(0.000000,70.000000) scale(0.100000,-0.100000)"
fill="#000000" stroke="none">
<path d="M315 679 c-91 -37 -162 -116 -189 -210 -2 -9 -31 -32 -63 -50 l-58
-34 56 -8 57 -9 21 -61 21 -61 -41 -74 c-22 -41 -38 -76 -36 -78 2 -2 36 12
76 32 77 38 93 38 147 5 30 -18 31 -22 27 -73 l-4 -53 40 45 c22 25 41 48 41
53 0 4 11 7 25 7 48 0 138 42 179 84 63 63 86 119 86 207 0 127 -63 221 -183
273 -70 31 -133 33 -202 5z m245 -124 c0 -8 -4 -15 -10 -15 -5 0 -10 7 -10 15
0 8 5 15 10 15 6 0 10 -7 10 -15z m-109 -27 c54 -11 57 -13 63 -47 3 -20 9
-50 12 -66 5 -26 -1 -38 -33 -74 l-39 -44 -66 12 c-63 12 -66 14 -76 49 -27
97 -27 101 14 143 42 43 44 44 125 27z m-261 -98 c0 -5 -4 -10 -10 -10 -5 0
-10 5 -10 10 0 6 5 10 10 10 6 0 10 -4 10 -10z m50 -80 c0 -5 -4 -10 -10 -10
-5 0 -10 5 -10 10 0 6 5 10 10 10 6 0 10 -4 10 -10z m20 -88 c0 -13 -12 -22
-22 -16 -10 6 -1 24 13 24 5 0 9 -4 9 -8z m60 -63 c0 -5 -7 -9 -15 -9 -15 0
-20 12 -9 23 8 8 24 -1 24 -14z m91 -12 c-13 -13 -26 -3 -16 12 3 6 11 8 17 5
6 -4 6 -10 -1 -17z"/>
<path d="M475 490 c4 -6 11 -8 16 -5 14 9 11 15 -7 15 -8 0 -12 -5 -9 -10z"/>
<path d="M352 390 c-18 -22 -29 -40 -24 -40 14 0 65 57 61 69 -2 5 -19 -8 -37
-29z"/>
<path d="M475 380 c-3 -5 1 -10 9 -10 9 0 16 5 16 10 0 6 -4 10 -9 10 -6 0
-13 -4 -16 -10z"/>
</g>
</svg>
